<?xml version="1.0" standalone="no"?>
<!DOCTYPE svg PUBLIC "-//W3C//DTD SVG 20010904//EN"
 "http://www.w3.org/TR/2001/REC-SVG-20010904/DTD/svg10.dtd">
<svg version="1.0" xmlns="http://www.w3.org/2000/svg"
 width="500.000000pt" height="500.000000pt" viewBox="0 0 500.000000 500.000000"
 preserveAspectRatio="xMidYMid meet">

<g transform="translate(0.000000,500.000000) scale(0.100000,-0.100000)"
fill="#000000" stroke="none">
<path d="M2460 3802 c-61 -30 -66 -41 -50 -101 l11 -41 42 6 c47 7 92 47 111
98 l11 31 5 -35 c4 -28 21 -50 82 -107 75 -71 77 -72 105 -59 20 10 50 13 101
9 86 -7 78 -23 -11 -23 -34 0 -71 -7 -89 -16 l-32 -16 30 -13 29 -13 -35 -1
c-71 -2 -164 -61 -197 -125 -12 -22 -12 -30 -3 -36 9 -6 7 -11 -8 -19 -31 -17
-39 -14 -86 29 -37 34 -44 47 -49 90 -15 123 -125 178 -231 116 -64 -37 -100
-101 -92 -160 4 -25 14 -50 22 -57 10 -8 14 -26 12 -53 -2 -32 0 -41 13 -41
18 0 37 -18 63 -57 10 -16 26 -28 35 -28 24 0 66 47 90 100 13 30 20 38 20 24
1 -11 -10 -41 -22 -67 -29 -57 -15 -67 32 -23 l34 31 -33 -47 c-18 -26 -42
-50 -52 -54 -18 -5 -18 -7 -4 -23 27 -29 18 -32 -20 -6 -72 49 -177 21 -230
-60 -9 -14 -24 -25 -33 -25 -9 -1 -27 -7 -40 -14 -18 -10 -23 -22 -25 -58 -1
-39 -31 -107 -42 -96 -2 2 1 22 7 43 16 58 4 116 -43 206 -25 49 -43 96 -44
120 -1 21 -7 46 -14 54 -15 17 -10 18 23 6 19 -7 35 -5 63 10 21 10 48 19 61
19 30 0 38 17 19 39 -9 10 -16 22 -16 28 0 6 -21 18 -47 26 l-46 15 -58 -50
c-49 -44 -59 -59 -74 -112 -40 -141 -28 -338 28 -460 l24 -52 91 -13 c135 -20
156 -14 296 85 38 27 57 34 90 33 27 -1 33 -3 16 -6 -53 -10 -52 -23 3 -70 64
-55 92 -70 182 -99 74 -24 63 -31 -23 -14 -41 7 -102 29 -132 47 -10 6 -10
-129 0 -146 6 -12 4 -31 -5 -57 -8 -21 -14 -53 -15 -70 l0 -31 -150 -13 c-82
-7 -150 -14 -150 -16 0 -2 228 -3 508 -3 487 2 510 3 306 25 -43 4 -53 10 -68
35 -10 16 -40 46 -67 67 -53 39 -52 54 1 27 18 -9 33 -15 34 -13 1 2 37 74 81
161 l80 159 3 157 c3 165 0 187 -53 306 -17 40 -17 40 3 22 19 -17 20 -17 26
5 9 36 7 97 -5 121 -10 21 -9 21 10 -2 15 -17 21 -37 21 -72 0 -52 1 -54 29
-39 29 15 50 55 77 147 30 105 26 119 -52 193 -60 57 -110 82 -206 105 -35 8
-84 21 -107 30 -62 21 -108 18 -171 -13z m215 -732 c38 -55 56 -124 55 -215 0
-44 3 -108 6 -141 4 -38 2 -69 -5 -80 -9 -16 -10 -12 -11 23 0 23 -5 54 -11
70 -6 15 -12 75 -13 133 -3 115 -18 168 -67 232 -16 20 -29 39 -29 43 0 14 50
-29 75 -65z m-250 -625 c-8 -21 -18 -35 -22 -31 -4 4 1 22 12 41 24 45 31 38
10 -10z"/>
<path d="M2140 1926 l0 -206 50 0 50 0 0 60 0 60 43 0 c40 0 44 -2 82 -60 39
-59 41 -59 88 -60 26 0 47 3 47 6 0 3 -18 32 -40 63 l-41 58 35 35 c63 63 58
162 -11 215 -35 27 -42 28 -170 31 l-133 4 0 -206z m224 123 c27 -13 44 -51
38 -87 -5 -30 -51 -52 -112 -52 l-50 0 0 75 0 75 50 0 c27 0 60 -5 74 -11z"/>
<path d="M2620 2095 l0 -35 75 0 75 0 0 -115 c0 -102 -2 -117 -20 -135 -26
-26 -60 -25 -95 1 l-27 22 -23 -29 c-17 -22 -20 -32 -12 -42 36 -44 150 -59
205 -27 53 32 57 47 60 228 l4 167 -121 0 -121 0 0 -35z"/>
<path d="M2180 1420 c0 -22 5 -40 10 -40 6 0 10 6 10 14 0 8 10 17 23 19 l22
4 -22 2 c-13 0 -23 7 -23 15 0 8 10 17 23 19 16 3 13 5 -10 6 -32 1 -33 0 -33
-39z"/>
<path d="M2280 1420 c0 -22 5 -40 10 -40 6 0 10 18 10 40 0 22 -4 40 -10 40
-5 0 -10 -18 -10 -40z"/>
<path d="M2343 1453 c12 -3 17 -15 17 -39 0 -19 5 -34 10 -34 6 0 10 15 10 34
0 19 6 37 13 39 6 3 -6 5 -28 5 -22 0 -32 -2 -22 -5z"/>
<path d="M2440 1420 c0 -22 5 -40 10 -40 6 0 10 12 10 26 l0 27 21 -27 c29
-36 39 -33 39 14 0 22 -4 40 -10 40 -5 0 -10 -10 -10 -22 l0 -21 -23 21 c-32
30 -37 28 -37 -18z"/>
<path d="M2560 1420 c0 -39 1 -40 33 -39 23 1 26 3 10 6 -13 2 -23 11 -23 18
0 7 10 16 23 18 l22 4 -22 2 c-13 0 -23 5 -23 10 0 5 10 12 23 14 16 3 13 5
-10 6 -32 1 -33 0 -33 -39z"/>
<path d="M2667 1453 c-15 -14 -6 -31 18 -37 14 -4 23 -11 20 -17 -4 -5 -15 -7
-26 -4 -11 4 -19 2 -19 -5 0 -6 12 -10 27 -8 35 4 45 37 14 45 -28 7 -27 21 2
26 20 4 20 4 -4 6 -14 0 -29 -2 -32 -6z"/>
<path d="M2767 1453 c-15 -14 -6 -31 18 -37 14 -4 23 -11 20 -17 -4 -5 -15 -7
-26 -4 -11 4 -19 2 -19 -5 0 -6 12 -10 27 -8 35 4 45 37 14 45 -28 7 -27 21 2
26 20 4 20 4 -4 6 -14 0 -29 -2 -32 -6z"/>
</g>
</svg>
